<svg width="20" height="20" viewBox="0 0 20 20" fill="none" xmlns="http://www.w3.org/2000/svg">
<path d="M14.3893 12.5656L10.4098 9.78279V5C10.4098 4.77459 10.2254 4.59016 9.99999 4.59016C9.77458 4.59016 9.59015 4.77459 9.59015 5V10C9.59015 10.1352 9.65572 10.2582 9.76638 10.3361L13.9221 13.2418C13.9918 13.291 14.0738 13.3156 14.1557 13.3156C14.2828 13.3156 14.4098 13.2541 14.4918 13.1352C14.6188 12.9508 14.5738 12.6967 14.3893 12.5656Z" fill="white"/>
<path d="M17.0656 2.93443C15.1721 1.04099 12.6639 0 10 0C7.33606 0 4.82787 1.04099 2.93443 2.93443C1.04098 4.82787 0 7.33606 0 10C0 12.6639 1.04098 15.1721 2.93443 17.0656C4.82787 18.959 7.33606 20 10 20C12.6639 20 15.1721 18.959 17.0656 17.0656C18.959 15.1721 20 12.6639 20 10C20 7.33606 18.959 4.82787 17.0656 2.93443ZM10.4098 19.1721V17.5C10.4098 17.2746 10.2254 17.0902 10 17.0902C9.77459 17.0902 9.59016 17.2746 9.59016 17.5V19.1721C4.85246 18.9631 1.03689 15.1475 0.827869 10.4098H2.5C2.72541 10.4098 2.90984 10.2254 2.90984 10C2.90984 9.77459 2.72541 9.59016 2.5 9.59016H0.827869C1.03689 4.85246 4.85246 1.03689 9.59016 0.827869V2.5C9.59016 2.72541 9.77459 2.90984 10 2.90984C10.2254 2.90984 10.4098 2.72541 10.4098 2.5V0.827869C15.1475 1.03689 18.9631 4.85246 19.1721 9.59016H17.5C17.2746 9.59016 17.0902 9.77459 17.0902 10C17.0902 10.2254 17.2746 10.4098 17.5 10.4098H19.1721C18.9631 15.1475 15.1475 18.9631 10.4098 19.1721Z" fill="white"/>
</svg>
