<svg width="16" height="22" viewBox="0 0 16 22" fill="none" xmlns="http://www.w3.org/2000/svg">
<path d="M10.8571 4.81246C11.173 4.81246 11.4286 5.11994 11.4286 5.49996C11.4286 5.87997 11.173 6.18746 10.8571 6.18746H5.14286C4.827 6.18746 4.57143 5.87997 4.57143 5.49996C4.57143 5.11994 4.827 4.81246 5.14286 4.81246H10.8571ZM16 17.9676C16 21.675 13.567 22 10.2366 22C9.52679 22 8.77621 21.9852 8 21.9852C7.22321 21.9852 6.47321 22 5.76282 22C2.43361 22 0 21.6737 0 17.9676C0 14.6241 1.98104 9.35911 4.81193 6.875H11.1875C14.019 9.35911 16 14.6241 16 17.9676ZM14.8571 17.9676C14.8571 15.1586 13.2054 10.5918 10.7991 8.25H5.19979C2.79464 10.5918 1.14286 15.1586 1.14286 17.9676C1.14286 19.9616 1.81082 20.625 5.76282 20.625C6.10714 20.625 6.46036 20.621 6.82196 20.6183C7.20646 20.6143 7.59986 20.6102 7.99996 20.6102C8.40007 20.6102 8.7935 20.6143 9.17743 20.6183C9.53904 20.621 9.89282 20.625 10.2366 20.625C14.1898 20.625 14.8571 19.9616 14.8571 17.9676ZM3.42857 0.312855C3.64843 0.0899336 3.91907 0 4.21986 0C5.45814 0 7.202 1.51736 7.952 1.51736C7.96875 1.51736 7.98436 1.51736 8 1.51602C8.01564 1.51736 8.03125 1.51736 8.048 1.51736C8.798 1.51736 10.5424 0 11.7801 0C12.0804 0 12.3516 0.0899766 12.5714 0.312855C13.7143 1.47301 11.1875 4.125 11.1875 4.125H4.81193C4.81193 4.125 2.28571 1.47301 3.42857 0.312855ZM8.75504 2.74996H10.7355C11.1217 2.284 11.4676 1.7563 11.6295 1.38836C11.173 1.4676 10.481 1.85565 9.96093 2.14569C9.52789 2.39009 9.13057 2.61302 8.75504 2.74996ZM4.37054 1.38841C4.53182 1.75635 4.87725 2.28405 5.26396 2.75H7.245C6.86943 2.61302 6.47211 2.39014 6.03907 2.14573C5.51954 1.85569 4.82757 1.46764 4.37054 1.38841Z" fill="white"/>
</svg>
