<svg width="20" height="20" viewBox="0 0 13 13" fill="none" xmlns="http://www.w3.org/2000/svg">
<path d="M6.24572 12.9586C6.10683 12.9089 5.91024 12.7359 5.83688 12.5969C5.78183 12.4946 5.77918 12.4606 5.77918 11.8341C5.77918 11.1027 5.78183 11.0975 5.97312 10.8957C6.13031 10.7279 6.24307 10.6808 6.49988 10.6808C6.7567 10.6808 6.86946 10.7281 7.02665 10.8957C7.21794 11.0975 7.22059 11.1028 7.22059 11.8341C7.22059 12.5837 7.21542 12.6099 6.98473 12.8118C6.78045 12.9901 6.49736 13.0478 6.24572 12.9586Z" fill="white"/>
<path d="M5.94964 9.99934C4.23284 9.72672 2.96175 8.23799 2.96175 6.50011C2.96175 4.54732 4.54749 2.9616 6.50002 2.9616C7.973 2.9616 9.28879 3.87379 9.81821 5.26038C10.0095 5.76622 10.0855 6.47928 10.0043 7.01126C9.76316 8.56566 8.56795 9.76612 7.02426 9.99934C6.72022 10.0466 6.24837 10.0466 5.94964 9.99934ZM7.03726 9.2104C8.10924 9.00597 8.97944 8.14101 9.20482 7.05052C9.273 6.72285 9.25987 6.12003 9.17856 5.81331C8.91643 4.8409 8.17211 4.09388 7.18663 3.8186C7.01365 3.77137 6.91403 3.76355 6.49988 3.76355C6.08574 3.76355 5.98612 3.77137 5.81314 3.8186C5.32829 3.95498 4.89319 4.20385 4.54988 4.54732C3.96276 5.13448 3.68763 5.89716 3.75316 6.75429C3.79773 7.37289 4.08864 7.9915 4.54988 8.45011C5.20532 9.10812 6.11214 9.38339 7.03726 9.2104Z" fill="white"/>
<path d="M6.28512 8.43711C5.54597 8.36375 4.8908 7.83681 4.65229 7.12389C4.3115 6.09907 4.85936 4.9981 5.88411 4.64947C6.18284 4.54718 6.65734 4.52888 6.97187 4.6102C7.85507 4.83294 8.43954 5.58792 8.43954 6.50011C8.43954 7.67709 7.46454 8.55253 6.28512 8.43711Z" fill="white"/>
<path d="M0.521593 7.21052C0.222725 7.11606 0 6.81465 0 6.50276C0 6.24062 0.167807 5.96283 0.403664 5.83693C0.50594 5.78187 0.539899 5.77922 1.16642 5.77922C1.90557 5.77922 1.92918 5.78453 2.12564 5.99413C2.28549 6.16195 2.31958 6.24845 2.31958 6.49998C2.31958 6.75681 2.27235 6.86957 2.10468 7.02678C1.90543 7.21808 1.89243 7.22073 1.20569 7.22604C0.867553 7.22882 0.558206 7.221 0.521593 7.21052Z" fill="white"/>
<path d="M11.1916 7.21052C11.0683 7.17125 10.9688 7.10823 10.8744 7.00608C10.7145 6.83826 10.6805 6.7519 10.6805 6.50024C10.6805 6.24858 10.7145 6.16208 10.8744 5.9944C11.071 5.78466 11.0946 5.77949 11.8336 5.77949C12.5832 5.77949 12.6094 5.78479 12.8113 6.01536C13.0629 6.30111 13.0629 6.6995 12.8113 6.98525C12.612 7.21065 12.5781 7.22113 11.873 7.22643C11.5349 7.22882 11.2283 7.221 11.1916 7.21052Z" fill="white"/>
<path d="M6.29029 2.3089C6.10418 2.24868 5.92337 2.09399 5.82906 1.91317C5.78448 1.83198 5.77931 1.75584 5.77931 1.16615C5.77931 0.416475 5.78462 0.390341 6.01517 0.188429C6.37426 -0.128767 6.90103 -0.0343113 7.15002 0.387688L7.22072 0.510931V1.16628C7.22072 1.7561 7.21555 1.83212 7.17098 1.91331C7.10279 2.04172 6.95077 2.19641 6.82767 2.25929C6.71492 2.31939 6.4057 2.34817 6.29029 2.3089Z" fill="white"/>
</svg>
