<svg width="21" height="21" viewBox="0 0 21 21" fill="none" xmlns="http://www.w3.org/2000/svg">
<path d="M20.6661 7.37019C18.2399 7.37019 15.8136 7.37019 13.3863 7.37019C13.3078 7.37019 13.2293 7.37019 13.1503 7.37019C12.4275 5.14735 11.7056 2.92352 10.9833 0.700179C10.9384 0.562424 10.8934 0.423681 10.8485 0.285432C10.8396 0.171871 10.767 0.0899089 10.6717 0.0425093C10.6569 0.0346094 10.6426 0.0276969 10.6268 0.021772C10.6066 0.0148595 10.5863 0.0109096 10.5651 0.00695961C10.5429 0.00300964 10.5221 -0.000446577 10.4999 4.71691e-05C10.4777 4.71691e-05 10.4565 0.00300964 10.4347 0.00695961C10.4135 0.0104158 10.3933 0.0148595 10.373 0.021772C10.3572 0.0272032 10.3429 0.0341156 10.3286 0.0425093C10.2333 0.0899089 10.1602 0.171871 10.1513 0.285432C9.40675 2.57691 8.66219 4.86937 7.91762 7.16084C7.8949 7.23046 7.87219 7.30057 7.84948 7.37019C5.50616 7.37019 3.16383 7.37019 0.820514 7.37019C0.658072 7.37019 0.496123 7.37019 0.333681 7.37019C-0.0346534 7.37019 -0.105753 7.82197 0.158895 8.01453C2.12203 9.44096 4.08516 10.8669 6.0483 12.2933C6.10261 12.3328 6.15692 12.3723 6.21173 12.4118C5.48592 14.646 4.76011 16.8797 4.03381 19.113C3.98345 19.267 3.93358 19.4215 3.88322 19.5761C3.79385 19.8506 4.14293 20.1464 4.39079 19.9666C6.35392 18.5402 8.31706 17.1148 10.2807 15.6878C10.3538 15.635 10.4268 15.5817 10.5004 15.5284C12.4053 16.9128 14.3101 18.2963 16.2155 19.6803C16.3473 19.7756 16.4782 19.8718 16.6095 19.9666C16.8574 20.1464 17.2065 19.8506 17.1171 19.5761C16.3671 17.2683 15.6176 14.9605 14.8666 12.6533C14.8409 12.5733 14.8148 12.4933 14.7886 12.4133C16.6747 11.0427 18.5608 9.67253 20.4474 8.3014C20.5787 8.20611 20.7096 8.11081 20.8414 8.01503C21.1056 7.82197 21.0355 7.37019 20.6661 7.37019ZM19.6046 8.06144C17.9377 9.27309 16.2703 10.4842 14.6019 11.6959C14.5896 11.7053 14.5763 11.7147 14.5639 11.724C14.167 10.503 13.7705 9.28247 13.3735 8.06144C15.4507 8.06144 17.5279 8.06144 19.6046 8.06144ZM6.7978 12.8389C7.83664 13.5934 8.87548 14.3483 9.91383 15.1032C8.23312 16.3243 6.55241 17.5443 4.8717 18.7658C5.51357 16.7899 6.15593 14.8144 6.7978 12.8389ZM10.4994 14.6776C9.3396 13.8353 8.18029 12.993 7.02147 12.1506C7.46485 10.7874 7.90725 9.42467 8.35063 8.06193C9.78299 8.06193 11.2153 8.06193 12.6482 8.06193C13.0916 9.42467 13.5345 10.7874 13.9774 12.1506C12.818 12.9925 11.6587 13.8353 10.4994 14.6776ZM12.4161 7.34452C12.4191 7.35291 12.4221 7.3618 12.4245 7.37019C11.1418 7.37019 9.85903 7.37019 8.57578 7.37019C9.21666 5.3957 9.85853 3.42121 10.4999 1.44722C11.1383 3.41282 11.7772 5.37892 12.4161 7.34452ZM1.39425 8.06144C3.46699 8.06144 5.53974 8.06144 7.61298 8.06144C7.61643 8.06144 7.62038 8.06144 7.62384 8.06144C7.22687 9.28198 6.83039 10.5025 6.43391 11.7231C4.75369 10.5025 3.07397 9.28198 1.39425 8.06144ZM16.1271 18.7663C14.4464 17.5443 12.7657 16.3238 11.0845 15.1023C12.1233 14.3478 13.1617 13.5929 14.201 12.8379C14.8434 14.8139 15.4848 16.7904 16.1271 18.7663Z" fill="white"/>
<path d="M9.268 13C9.208 13 9.158 12.982 9.118 12.946C9.082 12.91 9.064 12.868 9.064 12.82V8.98C9.064 8.932 9.082 8.89 9.118 8.854C9.154 8.818 9.196 8.8 9.244 8.8H10.864C11.092 8.8 11.296 8.85 11.476 8.95C11.656 9.046 11.796 9.18 11.896 9.352C12 9.524 12.052 9.718 12.052 9.934C12.052 10.11 12.02 10.272 11.956 10.42C11.892 10.568 11.802 10.694 11.686 10.798C11.57 10.898 11.44 10.972 11.296 11.02L11.086 10.954C11.234 10.966 11.372 11.014 11.5 11.098C11.628 11.178 11.73 11.29 11.806 11.434C11.886 11.574 11.928 11.744 11.932 11.944C11.936 12.116 11.944 12.25 11.956 12.346C11.972 12.442 11.994 12.514 12.022 12.562C12.05 12.61 12.086 12.648 12.13 12.676C12.17 12.7 12.196 12.734 12.208 12.778C12.224 12.822 12.22 12.864 12.196 12.904C12.18 12.936 12.156 12.96 12.124 12.976C12.096 12.988 12.066 12.994 12.034 12.994C12.002 12.994 11.97 12.986 11.938 12.97C11.882 12.938 11.824 12.888 11.764 12.82C11.708 12.752 11.66 12.652 11.62 12.52C11.584 12.388 11.566 12.204 11.566 11.968C11.566 11.812 11.54 11.684 11.488 11.584C11.44 11.484 11.376 11.408 11.296 11.356C11.22 11.3 11.134 11.262 11.038 11.242C10.946 11.218 10.858 11.206 10.774 11.206H9.376L9.442 11.122V12.82C9.442 12.868 9.426 12.91 9.394 12.946C9.362 12.982 9.32 13 9.268 13ZM9.376 10.876H10.882C11.018 10.864 11.146 10.82 11.266 10.744C11.386 10.664 11.482 10.556 11.554 10.42C11.63 10.284 11.668 10.126 11.668 9.946C11.668 9.718 11.59 9.53 11.434 9.382C11.282 9.23 11.082 9.154 10.834 9.154H9.4L9.442 9.07V10.96L9.376 10.876Z" fill="white"/>
</svg>
