<svg width="19" height="23" viewBox="0 0 19 23" fill="none" xmlns="http://www.w3.org/2000/svg">
<path d="M16.1105 4.3184C16.4961 4.20737 16.904 4.19879 17.294 4.29351C17.6839 4.38824 18.0425 4.583 18.3345 4.85864C18.5437 5.05764 18.7115 5.29607 18.8284 5.56025C18.9405 5.8231 18.9989 6.10582 19 6.39166V16.8281L18.9124 18.3506C18.8216 18.8824 18.6529 19.3978 18.4116 19.8801C18.1321 20.4343 17.7642 20.9391 17.3223 21.3745V23H15.8058V21.8621C15.8058 20.8448 15.8373 20.8097 16.1385 20.6308C16.388 20.4739 16.6025 20.2673 16.769 20.0239C17.0576 19.6521 17.2825 19.2348 17.4344 18.7891C17.5882 18.3458 17.6663 17.8797 17.6656 17.4104C17.6656 13.741 17.6656 10.0704 17.6656 6.39867C17.6663 6.28795 17.6449 6.17821 17.6025 6.07594C17.5557 5.96772 17.4879 5.86992 17.4029 5.78828C17.3181 5.70815 17.2197 5.64398 17.1122 5.59884C16.8868 5.5118 16.6371 5.5118 16.4117 5.59884C16.2984 5.64027 16.1956 5.70614 16.1105 5.79178C16.0278 5.87401 15.9602 5.9702 15.9109 6.07594C15.8674 6.18044 15.8448 6.29247 15.8443 6.40569V10.2751C15.8434 10.3278 15.8221 10.3782 15.7849 10.4155C15.7476 10.4528 15.6974 10.4741 15.6447 10.475H14.6885C14.6353 10.475 14.5841 10.4541 14.5461 10.4167C14.5081 10.3793 14.4863 10.3284 14.4854 10.2751V4.21667C14.4867 4.10328 14.464 3.9909 14.4188 3.88691C14.3728 3.77927 14.3048 3.68248 14.2192 3.60276C14.1324 3.52099 14.0315 3.45562 13.9215 3.40982C13.8099 3.36597 13.6911 3.34336 13.5713 3.34317C13.4514 3.34369 13.3327 3.36628 13.221 3.40982C13.109 3.45389 13.0067 3.51943 12.9198 3.60276C12.8371 3.68499 12.7695 3.78118 12.7202 3.88691C12.6767 3.99142 12.6541 4.10345 12.6536 4.21667V10.2751C12.6527 10.3278 12.6314 10.3782 12.5942 10.4155C12.5569 10.4528 12.5067 10.4741 12.454 10.475H11.4593C11.4066 10.4741 11.3564 10.4528 11.3191 10.4155C11.2819 10.3782 11.2606 10.3278 11.2597 10.2751V2.17499C11.2591 2.0644 11.2377 1.95491 11.1966 1.85225C11.1499 1.745 11.082 1.64834 10.997 1.5681C10.9107 1.48395 10.8082 1.4183 10.6958 1.37515C10.5847 1.32968 10.4656 1.30701 10.3455 1.3085C10.2258 1.30655 10.1068 1.32799 9.9953 1.37165C9.88349 1.41403 9.782 1.4798 9.69759 1.56459C9.61248 1.64231 9.54476 1.73719 9.49889 1.843C9.45301 1.94881 9.43001 2.06315 9.43141 2.1785V10.2821C9.43049 10.3354 9.40868 10.3863 9.37068 10.4237C9.33269 10.4611 9.28154 10.482 9.22827 10.482H8.2581C8.20543 10.4811 8.15518 10.4598 8.11793 10.4225C8.08068 10.3852 8.05936 10.3348 8.05846 10.2821V4.23772C8.05837 4.12446 8.03575 4.01236 7.99192 3.90796C7.94394 3.80144 7.87619 3.70501 7.79228 3.62381C7.70658 3.53894 7.60393 3.47319 7.49107 3.43087C7.37948 3.38701 7.2607 3.36441 7.14083 3.36422C7.02102 3.36505 6.90235 3.38763 6.79059 3.43087C6.68234 3.47293 6.58352 3.53613 6.49989 3.61679C6.4135 3.69786 6.34647 3.79738 6.30375 3.90796C6.25858 4.01195 6.2359 4.12433 6.23721 4.23772C6.23721 5.70408 6.23721 7.34585 6.23721 8.98411C6.23721 10.4294 6.23721 11.8712 6.23721 13.7129C6.21619 14.0322 6.34228 16.5404 5.18648 15.7476C5.03827 15.6585 4.89664 15.5589 4.76269 15.4494C4.59808 15.3161 4.42996 15.1688 4.26535 15.025C3.91511 14.7092 3.54735 14.3584 3.41076 14.2251C3.18812 14.0053 2.92043 13.8365 2.62622 13.7305C2.50692 13.6747 2.37689 13.6458 2.24525 13.6456C2.1136 13.6455 1.98352 13.6741 1.86409 13.7296C1.74465 13.7851 1.63877 13.866 1.55383 13.9668C1.46889 14.0675 1.40696 14.1856 1.37235 14.3128C1.30438 14.5893 1.33924 14.8811 1.47042 15.1337C1.69107 15.6213 2.33902 16.1616 2.73129 16.5369C3.78201 17.5893 5.75738 19.5644 7.28443 20.6764L7.32996 20.715C7.43345 20.8372 7.52714 20.9674 7.61015 21.1044C7.69048 21.2431 7.75845 21.3887 7.81329 21.5394C7.85992 21.6677 7.89279 21.8006 7.91136 21.9358C7.93226 22.0727 7.94047 22.2113 7.93588 22.3498L7.93588 23H6.39482L6.39481 21.799C4.95182 20.7466 3.29518 19.0206 2.15339 17.8454C1.51595 17.1789 0.535278 16.3615 0.195544 15.5266C-0.00910731 15.0485 -0.054548 14.5171 0.0659548 14.0111C0.111025 13.8305 0.178073 13.6562 0.265592 13.4919C0.353753 13.3242 0.463239 13.1685 0.591317 13.0289C0.719643 12.8929 0.865731 12.7749 1.02562 12.6781C1.18776 12.5813 1.36053 12.5036 1.54047 12.4465C2.00578 12.3115 2.5006 12.3177 2.96245 12.4641C3.46665 12.6286 3.92502 12.9098 4.30037 13.285L4.6296 13.6007L4.84325 13.8007V13.7305C4.84325 13.6428 4.84325 13.5586 4.84325 13.4674C4.84325 13.3762 4.86076 13.3095 4.87127 13.2218V4.23772C4.87236 3.95187 4.93072 3.66916 5.04288 3.40631C5.15973 3.14213 5.32756 2.9037 5.53672 2.7047C5.74672 2.50121 5.99574 2.34249 6.26873 2.23813C6.54018 2.12804 6.83046 2.07204 7.12332 2.07326C7.34611 2.07423 7.5677 2.10611 7.78177 2.16797C7.88241 2.19683 7.98075 2.23318 8.07597 2.27672V2.17499C8.07731 1.88527 8.13835 1.59896 8.25527 1.33396C8.37219 1.06896 8.54246 0.830995 8.75544 0.634955C8.96549 0.432362 9.21293 0.272696 9.48394 0.164879C9.7584 0.056726 10.0506 0.000809526 10.3455 0C10.6394 0.000164636 10.9306 0.0561117 11.2036 0.164879C11.4744 0.275252 11.7225 0.434598 11.9356 0.634955C12.1445 0.833468 12.3112 1.07208 12.426 1.33656C12.5409 1.59865 12.6006 1.88171 12.6011 2.16797V2.25216C12.6983 2.20959 12.7977 2.17212 12.8988 2.13991C13.1167 2.07282 13.3433 2.03854 13.5713 2.03817C13.8651 2.03901 14.1561 2.09493 14.4294 2.20305C14.6995 2.31092 14.9467 2.46925 15.1579 2.66962C15.367 2.86862 15.5348 3.10705 15.6517 3.37123C15.7639 3.63408 15.8222 3.91679 15.8233 4.20264V4.4026C15.9151 4.36749 16.0086 4.33705 16.1035 4.31139L16.1105 4.3184Z" fill="white"/>
</svg>
