<svg width="18" height="20" viewBox="0 0 18 20" fill="none" xmlns="http://www.w3.org/2000/svg">
<path d="M6.97992 18.8887H0.434927V17.6666H5.71084V15.7004L3.27085 14.0248C3.16351 13.9508 3.07576 13.8536 3.01472 13.7409C2.95368 13.6282 2.92106 13.5032 2.91951 13.3761C2.91671 13.1189 3.0428 12.8737 3.25661 12.7203L5.71084 10.9576V8.29923L7.6777 8.14882L3.43383 0.581191L4.55048 0L9.72013 9.21939L6.97992 9.42823V11.1653C6.97992 11.4189 6.85415 11.6605 6.64342 11.8121L4.4888 13.36L6.62853 14.8292C6.84914 14.9814 6.9799 15.2266 6.9799 15.4862L6.97992 18.8887ZM0 3.84452C-4.53926e-09 3.99119 0.0299998 4.13643 0.0882872 4.27193C0.146575 4.40744 0.232008 4.53056 0.339709 4.63428C0.44741 4.73799 0.57527 4.82026 0.715988 4.87639C0.856706 4.93252 1.00753 4.9614 1.15984 4.9614C1.31215 4.9614 1.46297 4.93252 1.60369 4.87639C1.74441 4.82026 1.87227 4.73799 1.97997 4.63428C2.08767 4.53056 2.1731 4.40744 2.23139 4.27193C2.28968 4.13643 2.31968 3.99119 2.31968 3.84452C2.31968 3.69785 2.28968 3.55262 2.23139 3.41711C2.1731 3.2816 2.08767 3.15848 1.97997 3.05477C1.87227 2.95105 1.74441 2.86878 1.60369 2.81266C1.46297 2.75653 1.31215 2.72764 1.15984 2.72764C1.00753 2.72764 0.856706 2.75653 0.715988 2.81266C0.57527 2.86878 0.44741 2.95105 0.339709 3.05477C0.232008 3.15848 0.146575 3.2816 0.0882876 3.41711C0.0300002 3.55262 -3.20974e-09 3.69785 0 3.84452ZM10.0507 15.2391C9.77281 15.2391 9.51784 15.0619 9.43974 14.7916C9.34588 14.4664 9.54352 14.1298 9.88094 14.0391C10.2013 13.9538 10.425 13.6703 10.425 13.3499C10.425 13.0325 10.2137 12.7573 9.89924 12.6655C9.5637 12.567 9.37469 12.2257 9.47631 11.9028C9.57854 11.5794 9.93458 11.3986 10.2679 11.4959C11.1209 11.7459 11.6941 12.4906 11.6941 13.3499C11.6941 14.2169 11.0884 14.9843 10.2212 15.217C10.1641 15.232 10.1068 15.2391 10.0507 15.2391Z" fill="white"/>
<path d="M11.92 17.5085C11.6916 17.5085 11.4713 17.3897 11.3576 17.1815C11.1947 16.8831 11.3139 16.5138 11.6241 16.3568C12.7922 15.7654 13.5178 14.6096 13.5178 13.3403C13.5178 12.0914 12.8089 10.9445 11.6681 10.3472C11.3601 10.1861 11.2461 9.8149 11.4137 9.51834C11.581 9.22177 11.9659 9.11257 12.2741 9.27306C13.8239 10.0846 14.7869 11.6433 14.7869 13.3404C14.7869 15.0649 13.8013 16.6355 12.2147 17.4381C12.1238 17.4843 12.0227 17.5084 11.92 17.5085Z" fill="white"/>
<path d="M13.8208 19.3494C13.5925 19.3494 13.3722 19.2307 13.2585 19.0224C13.0955 18.724 13.2148 18.3546 13.5249 18.1977C15.4085 17.2441 16.5784 15.38 16.5784 13.3332C16.5784 11.3187 15.4354 9.46943 13.5959 8.50632C13.2879 8.34458 13.1739 7.97403 13.3415 7.67746C13.5088 7.38032 13.8942 7.27172 14.2019 7.43222C16.4507 8.60958 17.8475 10.8706 17.8475 13.3333C17.8475 15.8359 16.4176 18.1142 14.1155 19.279C14.0247 19.3252 13.9235 19.3493 13.8208 19.3494Z" fill="white"/>
</svg>
